<?xml version="1.0" encoding="UTF-8" standalone="no"?>
<!-- Created with Inkscape (http://www.inkscape.org/) -->

<svg
        version="1.1"
        id="svg1"
        width="431.20001"
        height="426"
        viewBox="0 0 431.20001 426"
        xmlns="http://www.w3.org/2000/svg"
        xmlns:svg="http://www.w3.org/2000/svg">
  <defs
     id="defs1" />
  <g
          id="g1">
    <path
       id="path17"
       style="fill:#101010;stroke-width:1.00157"
       d="m 1.5856079,103.06452 v 51.79652 L 74.523573,84.037221 66.595533,70.823821 Z M 2.1141439,1.5856079 1.5856079,93.022333 66.595533,61.83871 65.538462,1.5856079 Z m 0,338.7915621 v 64.48139 L 74.523573,326.63524 Z m 0,-100.42184 v 91.43673 L 78.223325,316.06452 Z M 116.27792,161.20347 49.682382,275.36725 86.151365,311.83623 127.90571,180.75931 Z M 43.33995,126.3201 79.280397,92.493797 109.93548,148.51861 Z M 75.052109,66.066998 136.89082,35.940447 147.46154,118.9206 132.134,170.71712 Z m 77.166251,14.270471 3.69975,30.126551 85.0943,-15.85608 -59.19603,-59.196029 z M 307.60794,7.3995037 300.73697,82.980149 377.90323,68.709677 Z m 6.87097,-5.8138958 110.46402,0.528536 -35.94045,62.8957821 z M 270.08189,1.057072 h 29.59801 l -8.45657,84.565757 -38.0546,7.928039 -41.2258,-42.811414 z m -63.42433,0.528536 h 50.21092 L 206.65756,45.454094 188.68734,28.540943 Z m -64.48138,-10e-8 53.91067,0.528536 -44.92556,65.0099251 z m -68.709679,0 L 74.523573,56.55335 137.41935,27.483871 132.66253,1.5856079 Z M 1.585608,166.48883 2.6426799,228.32754 44.397022,268.49628 108.34988,158.56079 35.940447,133.7196 Z" />
  </g>
</svg>
