<?xml version="1.0" encoding="UTF-8" standalone="no"?>
<!-- Created with Inkscape (http://www.inkscape.org/) -->

<svg
        version="1.1"
        id="svg1"
        width="593.20001"
        height="426"
        viewBox="0 0 593.20001 426"
        xmlns="http://www.w3.org/2000/svg"
        xmlns:svg="http://www.w3.org/2000/svg">
  <defs
     id="defs1" />
  <g
          id="g1">
    <path
       id="path25"
       style="fill:#000000;stroke-width:1.00157"
       d="m 539.1067,2.1141438 h 56.55335 L 578.7469,11.627792 Z m 0.83934,41.3816282 37.66093,-10.608725 -24.4,15.913088 z M 508.13128,30.232966 532.53135,6.8937702 593.53151,24.928603 529.87916,39.780818 Z m -64.179,-28.6454578 80.62631,1.0608725 -26.52183,25.4609363 -22.80873,-7.426108 z m 33.41368,28.1093208 2.65219,28.113116 66.83497,-3.71305 z m -76.90754,35.014483 38.19142,-60.4697223 29.17397,21.2174463 3.71307,33.417487 z m -11.66958,10.06689 122.00031,-9.547852 -96.53938,30.765301 z m -130.49109,36.592508 50.92183,11.13916 -6.89565,16.97397 -23.33917,-5.30439 z m -2.64268,-7.94323 122.53072,-25.991397 28.11313,20.687011 -13.79136,33.417456 z M 113.50004,256.72165 94.934779,314.53917 151.69147,293.85215 Z m 30.77289,-75.31626 71.07846,-21.74787 -50.39144,54.10448 z m -8.48694,2.12171 -18.03483,66.83497 58.34794,54.10447 -17.50438,-84.86973 z m 21.22507,-63.65046 83.27846,-13.79129 28.64354,25.99135 -127.3047,41.37399 z M 1.5856079,103.43128 v 51.98269 L 74.785803,84.335553 66.829256,71.07465 Z M 2.1160442,1.5875082 1.5856079,93.352973 66.829256,62.057231 65.768385,1.5875082 Z m 0,340.0096118 v 64.71321 L 74.785803,327.80579 Z m 0,-100.78293 v 91.76549 L 78.498854,317.19706 Z M 116.69031,161.77922 49.855303,276.3535 86.455401,312.95357 128.35988,181.4054 Z M 43.490067,126.77049 79.559727,92.822534 110.32499,149.0488 Z M 75.316236,66.300721 137.37727,36.065865 147.98599,119.34433 132.60336,171.3271 Z M 152.75989,80.622502 156.473,110.85737 241.87323,94.944278 182.46436,35.535425 Z M 308.70821,7.4223063 301.81246,83.274681 379.25616,68.952905 Z m 6.8956,-5.8347981 110.86123,0.5304362 -36.06973,63.1219046 z M 271.04721,1.057072 h 29.7044 l -8.48695,84.869793 -38.19142,7.95654 -41.37398,-42.965326 z m -63.65237,0.5304363 h 50.39144 l -50.39144,44.0262087 -18.0348,-16.97396 z m -64.71325,-1e-7 54.10454,0.5304362 -45.08709,65.2436486 z m -68.956659,0 1.060872,55.1653658 63.121947,-29.17399 -4.77397,-25.9913758 z M 1.585608,167.08362 2.6464804,229.14462 44.55094,269.45776 108.73371,159.12709 36.063961,134.19652 Z" />
  </g>
</svg>
